<svg xmlns="http://www.w3.org/2000/svg" xmlns:xlink="http://www.w3.org/1999/xlink" width="400" zoomAndPan="magnify" viewBox="0 0 300 157.5" height="210" preserveAspectRatio="xMidYMid meet" version="1.0"><defs><g/></defs><g fill="#6cc8d9" fill-opacity="1"><g transform="translate(30.883718, 92.107017)"><g><path d="M 16.75 -28.886719 C 18.183594 -28.886719 19.375 -29.136719 19.375 -30.871094 C 19.375 -32.160156 18.976562 -33.347656 17.441406 -33.347656 C 16.402344 -33.347656 15.359375 -33.347656 14.269531 -33.347656 L 8.027344 -33.445312 C 6.9375 -33.445312 5.898438 -33.445312 4.855469 -33.445312 C 2.875 -33.445312 0.695312 -33.101562 0.695312 -30.621094 C 0.695312 -29.332031 1.238281 -28.738281 2.527344 -28.738281 C 2.875 -28.738281 3.269531 -28.738281 3.617188 -28.738281 L 5.796875 -28.886719 C 6.144531 -28.886719 6.539062 -28.886719 6.886719 -28.886719 C 7.730469 -28.886719 7.929688 -28.738281 8.078125 -27.945312 C 8.472656 -25.964844 8.324219 -23.785156 8.421875 -21.753906 C 8.621094 -15.957031 8.421875 -10.15625 8.96875 -4.359375 C 9.117188 -3.023438 9.613281 -1.636719 11.199219 -1.636719 C 13.28125 -1.636719 13.675781 -2.726562 13.675781 -4.609375 C 13.675781 -12.683594 12.832031 -20.8125 12.488281 -28.886719 Z M 16.75 -28.886719 "/></g></g></g><g fill="#6cc8d9" fill-opacity="1"><g transform="translate(51.645296, 92.107017)"><g><path d="M 6.6875 -4.507812 C 4.855469 -4.460938 2.773438 -4.65625 2.773438 -2.179688 C 2.773438 -0.0507812 5.597656 0.0507812 7.136719 0.0507812 C 9.066406 0.0507812 15.359375 0.445312 15.359375 -2.429688 C 15.359375 -4.0625 13.773438 -4.609375 12.386719 -4.609375 C 12.1875 -4.609375 11.890625 -4.558594 11.742188 -4.609375 C 11.148438 -4.65625 11.296875 -5.054688 11.246094 -5.550781 C 10.800781 -12.980469 11.097656 -20.515625 10.902344 -27.996094 C 12.785156 -27.996094 15.855469 -27.5 15.855469 -30.273438 C 15.855469 -32.308594 13.972656 -32.457031 12.386719 -32.457031 C 11.792969 -32.457031 11.199219 -32.457031 10.605469 -32.457031 L 6.988281 -32.554688 C 6.390625 -32.554688 5.796875 -32.554688 5.203125 -32.554688 C 3.121094 -32.554688 2.128906 -32.457031 2.128906 -30.078125 C 2.128906 -28.292969 2.875 -27.898438 4.558594 -27.898438 C 5.898438 -27.898438 6.539062 -28.292969 6.539062 -26.507812 C 6.539062 -19.175781 6.640625 -11.84375 6.6875 -4.507812 Z M 6.6875 -4.507812 "/></g></g></g><g fill="#6cc8d9" fill-opacity="1"><g transform="translate(69.879803, 92.107017)"><g><path d="M 19.421875 -11 C 15.707031 -17.691406 12.238281 -24.578125 7.78125 -30.820312 C 7.285156 -31.464844 6.886719 -32.207031 5.945312 -32.207031 C 4.0625 -32.207031 3.519531 -31.316406 3.519531 -29.53125 L 3.519531 -22.398438 C 3.519531 -19.226562 3.46875 -3.566406 4.261719 -1.585938 C 4.707031 -0.445312 5.003906 0.0507812 6.34375 0.0507812 C 7.78125 0.0507812 8.375 -1.335938 8.375 -2.578125 C 8.375 -5.054688 8.324219 -7.480469 8.226562 -9.960938 L 8.125 -14.863281 C 8.027344 -17.292969 7.976562 -19.769531 7.976562 -22.199219 L 7.976562 -23.585938 C 9.066406 -21.109375 10.503906 -18.78125 11.84375 -16.449219 L 18.085938 -5.550781 C 18.730469 -4.410156 20.464844 -1.039062 21.902344 -1.039062 C 23.636719 -1.039062 24.082031 -2.875 24.082031 -4.261719 C 24.082031 -6.738281 24.03125 -9.214844 23.933594 -11.695312 L 23.832031 -16.597656 C 23.734375 -19.078125 23.683594 -21.554688 23.683594 -24.03125 C 23.683594 -26.261719 23.933594 -29.234375 23.386719 -31.316406 C 23.039062 -32.605469 22.695312 -33.050781 21.308594 -33.050781 C 19.523438 -33.050781 19.027344 -32.058594 19.027344 -30.425781 C 19.027344 -24.082031 19.421875 -17.789062 19.421875 -11.445312 Z M 19.421875 -11 "/></g></g></g><g fill="#6cc8d9" fill-opacity="1"><g transform="translate(97.677525, 92.107017)"><g><path d="M 19.421875 -11 C 15.707031 -17.691406 12.238281 -24.578125 7.78125 -30.820312 C 7.285156 -31.464844 6.886719 -32.207031 5.945312 -32.207031 C 4.0625 -32.207031 3.519531 -31.316406 3.519531 -29.53125 L 3.519531 -22.398438 C 3.519531 -19.226562 3.46875 -3.566406 4.261719 -1.585938 C 4.707031 -0.445312 5.003906 0.0507812 6.34375 0.0507812 C 7.78125 0.0507812 8.375 -1.335938 8.375 -2.578125 C 8.375 -5.054688 8.324219 -7.480469 8.226562 -9.960938 L 8.125 -14.863281 C 8.027344 -17.292969 7.976562 -19.769531 7.976562 -22.199219 L 7.976562 -23.585938 C 9.066406 -21.109375 10.503906 -18.78125 11.84375 -16.449219 L 18.085938 -5.550781 C 18.730469 -4.410156 20.464844 -1.039062 21.902344 -1.039062 C 23.636719 -1.039062 24.082031 -2.875 24.082031 -4.261719 C 24.082031 -6.738281 24.03125 -9.214844 23.933594 -11.695312 L 23.832031 -16.597656 C 23.734375 -19.078125 23.683594 -21.554688 23.683594 -24.03125 C 23.683594 -26.261719 23.933594 -29.234375 23.386719 -31.316406 C 23.039062 -32.605469 22.695312 -33.050781 21.308594 -33.050781 C 19.523438 -33.050781 19.027344 -32.058594 19.027344 -30.425781 C 19.027344 -24.082031 19.421875 -17.789062 19.421875 -11.445312 Z M 19.421875 -11 "/></g></g></g><g fill="#6cc8d9" fill-opacity="1"><g transform="translate(125.475246, 92.107017)"><g><path d="M 14.320312 -13.875 C 21.15625 -15.460938 21.308594 -23.933594 21.308594 -29.53125 C 21.308594 -31.464844 21.703125 -33.148438 19.175781 -33.148438 C 16.996094 -33.148438 16.699219 -31.464844 16.699219 -29.679688 C 16.699219 -26.113281 17.691406 -17.9375 12.1875 -17.9375 C 7.480469 -17.9375 6.640625 -23.140625 6.34375 -26.808594 C 6.144531 -29.085938 6.9375 -32.652344 3.617188 -32.652344 C 1.535156 -32.652344 1.585938 -31.515625 1.585938 -29.828125 C 1.585938 -23.882812 3.171875 -15.261719 9.910156 -13.476562 C 9.859375 -11.890625 10.15625 -10.304688 10.15625 -8.722656 C 10.15625 -7.136719 9.761719 0.296875 12.289062 0.296875 C 13.429688 0.296875 14.914062 -0.347656 14.914062 -1.683594 C 14.914062 -5.550781 14.320312 -9.316406 14.320312 -13.179688 Z M 14.320312 -13.875 "/></g></g></g><g fill="#6cc8d9" fill-opacity="1"><g transform="translate(149.011638, 92.107017)"><g/></g></g><g fill="#6cc8d9" fill-opacity="1"><g transform="translate(168.83177, 92.107017)"><g><path d="M 19.722656 -27.152344 C 19.722656 -31.214844 15.90625 -33.199219 12.289062 -33.199219 C 6.9375 -33.199219 3.320312 -29.632812 3.320312 -24.28125 C 3.320312 -13.578125 16.449219 -16.597656 16.449219 -9.316406 C 16.449219 -6.789062 14.320312 -5.449219 11.992188 -5.449219 C 5.351562 -5.449219 8.769531 -11.992188 4.65625 -11.992188 C 3.417969 -11.992188 2.726562 -11.097656 2.726562 -9.910156 C 2.726562 -4.460938 7.035156 -0.941406 12.289062 -0.941406 C 16.898438 -0.941406 20.859375 -3.914062 20.859375 -8.769531 C 20.859375 -20.613281 7.878906 -17.34375 7.878906 -23.933594 C 7.878906 -26.757812 9.316406 -28.789062 12.289062 -28.789062 C 15.65625 -28.789062 15.460938 -24.875 17.691406 -24.875 C 18.878906 -24.875 19.722656 -26.0625 19.722656 -27.152344 Z M 19.722656 -27.152344 "/></g></g></g><g fill="#6cc8d9" fill-opacity="1"><g transform="translate(192.269052, 92.107017)"><g><path d="M 20.367188 -18.976562 C 17.738281 -18.730469 15.164062 -18.480469 12.535156 -18.480469 L 8.722656 -18.480469 C 8.175781 -18.480469 7.976562 -18.53125 7.976562 -19.125 L 7.976562 -29.632812 C 7.976562 -31.613281 7.878906 -32.851562 5.5 -32.851562 C 3.519531 -32.851562 3.417969 -29.976562 3.417969 -28.542969 C 3.417969 -23.289062 3.617188 -17.988281 3.617188 -12.683594 C 3.617188 -9.363281 3.417969 -5.945312 3.964844 -2.675781 C 4.210938 -1.238281 4.804688 -0.445312 6.34375 -0.445312 C 8.273438 -0.445312 8.421875 -0.941406 8.421875 -2.726562 C 8.421875 -5.847656 8.027344 -8.917969 8.027344 -12.039062 L 8.027344 -14.121094 L 21.007812 -14.121094 L 21.007812 -2.03125 C 21.007812 -0.496094 21.457031 0.445312 23.140625 0.445312 C 24.726562 0.445312 25.269531 -0.296875 25.269531 -1.832031 C 25.269531 -9.8125 24.578125 -17.789062 24.578125 -25.714844 C 24.578125 -27.648438 25.171875 -33.695312 22.25 -33.695312 C 20.710938 -33.695312 20.214844 -33.050781 20.214844 -31.5625 C 20.214844 -31.066406 20.214844 -30.523438 20.214844 -30.027344 L 20.367188 -26.957031 C 20.367188 -26.460938 20.367188 -25.914062 20.367188 -25.417969 Z M 20.367188 -18.976562 "/></g></g></g><g fill="#6cc8d9" fill-opacity="1"><g transform="translate(221.107329, 92.107017)"><g><path d="M 14.714844 -34.042969 C 6.195312 -34.042969 2.773438 -24.726562 2.773438 -17.539062 C 2.773438 -9.066406 5.847656 -0.0507812 15.855469 -0.0507812 C 24.328125 -0.0507812 27.105469 -10.207031 27.105469 -17.046875 C 27.105469 -24.527344 23.535156 -34.042969 14.714844 -34.042969 Z M 14.914062 -4.558594 C 8.472656 -4.558594 7.480469 -11.941406 7.480469 -16.898438 C 7.480469 -21.902344 8.917969 -29.582031 15.3125 -29.582031 C 21.457031 -29.582031 22.742188 -21.851562 22.742188 -17.09375 C 22.742188 -12.339844 20.910156 -4.558594 14.914062 -4.558594 Z M 14.914062 -4.558594 "/></g></g></g><g fill="#6cc8d9" fill-opacity="1"><g transform="translate(251.134825, 92.107017)"><g><path d="M 9.066406 -11.496094 C 16.105469 -11.398438 21.457031 -13.179688 21.457031 -21.257812 C 21.457031 -27.105469 17.988281 -33.25 11.496094 -33.25 C 5.597656 -33.25 3.023438 -29.136719 3.023438 -23.636719 C 3.023438 -19.472656 4.261719 -4.65625 5.597656 -1.238281 C 5.945312 -0.347656 6.441406 0.546875 7.53125 0.546875 C 8.421875 0.546875 9.761719 0.199219 9.761719 -0.941406 C 9.761719 -4.210938 9.066406 -7.480469 9.066406 -10.753906 Z M 11.445312 -28.640625 C 15.609375 -28.640625 17.046875 -24.773438 17.046875 -21.207031 C 17.046875 -17.441406 14.171875 -15.855469 10.753906 -15.855469 C 8.820312 -15.855469 8.621094 -17.292969 8.472656 -18.828125 C 8.226562 -21.109375 8.125 -23.4375 8.125 -25.714844 C 8.125 -27.945312 9.363281 -28.640625 11.445312 -28.640625 Z M 11.445312 -28.640625 "/></g></g></g><path stroke-linecap="butt" transform="matrix(2.064602, 0, 0, 2.064602, 13.450004, 44.446954)" fill="none" stroke-linejoin="miter" d="M 15.391127 8.008087 C 16.087387 8.008087 16.668235 7.890782 16.668235 7.046945 C 16.668235 6.426366 16.475249 5.845518 15.729797 5.845518 C 15.226522 5.845518 14.723247 5.845518 14.195376 5.845518 L 11.171943 5.798218 C 10.638396 5.798218 10.135121 5.798218 9.629954 5.798218 C 8.676381 5.798218 7.614963 5.968499 7.614963 7.169926 C 7.614963 7.790505 7.879844 8.078091 8.5061 8.078091 C 8.676381 8.078091 8.86369 8.078091 9.033971 8.078091 L 10.087821 8.008087 C 10.258102 8.008087 10.451087 8.008087 10.615692 8.008087 C 11.026258 8.008087 11.118967 8.078091 11.194647 8.464061 C 11.381956 9.425203 11.311952 10.480945 11.359252 11.46479 C 11.459529 14.270642 11.359252 17.078386 11.622242 19.889914 C 11.699814 20.53509 11.9401 21.208646 12.706364 21.208646 C 13.714806 21.208646 13.902115 20.680775 13.902115 19.766934 C 13.902115 15.854255 13.497224 11.922657 13.328835 8.008087 Z M 20.577129 19.814234 C 19.685992 19.83883 18.679442 19.74423 18.679442 20.945656 C 18.679442 21.976802 20.049258 22.024103 20.79471 22.024103 C 21.731255 22.024103 24.779285 22.217088 24.779285 20.822676 C 24.779285 20.031815 24.011128 19.766934 23.337573 19.766934 C 23.242972 19.766934 23.097287 19.79153 23.027283 19.766934 C 22.739697 19.74423 22.809702 19.551245 22.786997 19.310959 C 22.569416 15.712355 22.716993 12.062666 22.616716 8.441357 C 23.530558 8.441357 25.01957 8.681643 25.01957 7.334531 C 25.01957 6.348793 24.105729 6.278789 23.337573 6.278789 C 23.049987 6.278789 22.762401 6.278789 22.476708 6.278789 L 20.724706 6.231489 C 20.431444 6.231489 20.143858 6.231489 19.856273 6.231489 C 18.849723 6.231489 18.369152 6.278789 18.369152 7.432915 C 18.369152 8.295672 18.732418 8.488657 19.545983 8.488657 C 20.191159 8.488657 20.507124 8.295672 20.507124 9.162213 C 20.507124 12.713518 20.554425 16.26293 20.577129 19.814234 Z M 35.578882 16.673496 C 33.773904 13.434374 32.099474 10.093083 29.936906 7.069649 C 29.696621 6.75936 29.503636 6.40177 29.051445 6.40177 C 28.137604 6.40177 27.874614 6.829364 27.874614 7.697797 L 27.874614 11.154501 C 27.874614 12.688921 27.850018 20.272101 28.232204 21.233242 C 28.447894 21.783817 28.595471 22.024103 29.238754 22.024103 C 29.936906 22.024103 30.224492 21.350547 30.224492 20.752671 C 30.224492 19.551245 30.199896 18.378198 30.154487 17.178663 L 30.107187 14.798513 C 30.059887 13.621683 30.029615 12.425932 30.029615 11.247209 L 30.029615 10.573653 C 30.563162 11.77508 31.255638 12.906503 31.904597 14.030357 L 34.928031 19.310959 C 35.240212 19.861534 36.084049 21.496232 36.774633 21.496232 C 37.61847 21.496232 37.836051 20.605095 37.836051 19.937215 C 37.836051 18.735788 37.811455 17.534361 37.758479 16.334826 L 37.71307 13.960353 C 37.66577 12.758926 37.641174 11.559391 37.641174 10.357964 C 37.641174 9.279518 37.758479 7.837806 37.495489 6.829364 C 37.330884 6.208784 37.160603 5.993095 36.487047 5.993095 C 35.626183 5.993095 35.385897 6.471774 35.385897 7.264526 C 35.385897 10.333368 35.578882 13.387073 35.578882 16.457807 Z M 49.042431 16.673496 C 47.239345 13.434374 45.563023 10.093083 43.400455 7.069649 C 43.16017 6.75936 42.967184 6.40177 42.516886 6.40177 C 41.601153 6.40177 41.338163 6.829364 41.338163 7.697797 L 41.338163 11.154501 C 41.338163 12.688921 41.315459 20.272101 41.695753 21.233242 C 41.913334 21.783817 42.059019 22.024103 42.704195 22.024103 C 43.400455 22.024103 43.688041 21.350547 43.688041 20.752671 C 43.688041 19.551245 43.665336 18.378198 43.618036 17.178663 L 43.570736 14.798513 C 43.523436 13.621683 43.495055 12.425932 43.495055 11.247209 L 43.495055 10.573653 C 44.028602 11.77508 44.719186 12.906503 45.370038 14.030357 L 48.393471 19.310959 C 48.703761 19.861534 49.547598 21.496232 50.238182 21.496232 C 51.082019 21.496232 51.2996 20.605095 51.2996 19.937215 C 51.2996 18.735788 51.275004 17.534361 51.223919 16.334826 L 51.176619 13.960353 C 51.129319 12.758926 51.106615 11.559391 51.106615 10.357964 C 51.106615 9.279518 51.223919 7.837806 50.959038 6.829364 C 50.794433 6.208784 50.626044 5.993095 49.950596 5.993095 C 49.089731 5.993095 48.849446 6.471774 48.849446 7.264526 C 48.849446 10.333368 49.042431 13.387073 49.042431 16.457807 Z M 60.035014 15.279084 C 63.346033 14.510928 63.416037 10.41094 63.416037 7.697797 C 63.416037 6.75936 63.609022 5.945795 62.384891 5.945795 C 61.329149 5.945795 61.183464 6.75936 61.183464 7.627793 C 61.183464 9.349522 61.664035 13.311393 59.003868 13.311393 C 56.718319 13.311393 56.313429 10.791235 56.167744 9.016528 C 56.073143 7.913486 56.455329 6.18608 54.849012 6.18608 C 53.84057 6.18608 53.865167 6.736655 53.865167 7.55022 C 53.865167 10.433645 54.631431 14.605528 57.89515 15.472069 C 57.872445 16.240226 58.01813 17.008382 58.01813 17.774646 C 58.01813 18.542803 57.825145 22.147083 59.051168 22.147083 C 59.601743 22.147083 60.322599 21.829226 60.322599 21.185942 C 60.322599 19.310959 60.035014 17.488953 60.035014 15.61397 Z M 83.647308 8.846248 C 83.647308 6.88234 81.802598 5.921199 80.050596 5.921199 C 77.454757 5.921199 75.702755 7.650497 75.702755 10.240659 C 75.702755 15.426661 82.065587 13.960353 82.065587 17.488953 C 82.065587 18.713084 81.034441 19.358259 79.903019 19.358259 C 76.686601 19.358259 78.345894 16.192925 76.353607 16.192925 C 75.755731 16.192925 75.415169 16.62052 75.415169 17.201367 C 75.415169 19.83883 77.507733 21.543532 80.050596 21.543532 C 82.283169 21.543532 84.197883 20.10182 84.197883 17.751942 C 84.197883 12.015366 77.910732 13.597087 77.910732 10.41094 C 77.910732 9.039233 78.608884 8.055387 80.050596 8.055387 C 81.679617 8.055387 81.585017 9.953074 82.663463 9.953074 C 83.24431 9.953074 83.647308 9.379795 83.647308 8.846248 Z M 95.309663 12.806226 C 94.038232 12.929207 92.791396 13.046511 91.519965 13.046511 L 89.673363 13.046511 C 89.410373 13.046511 89.310097 13.023807 89.310097 12.736222 L 89.310097 7.650497 C 89.310097 6.689355 89.262796 6.085804 88.114346 6.085804 C 87.153204 6.085804 87.107796 7.480216 87.107796 8.178368 C 87.107796 10.72123 87.200505 13.286797 87.200505 15.854255 C 87.200505 17.464357 87.107796 19.117974 87.370786 20.705371 C 87.48809 21.401631 87.775676 21.783817 88.519236 21.783817 C 89.457673 21.783817 89.527678 21.543532 89.527678 20.680775 C 89.527678 19.169058 89.340369 17.681938 89.340369 16.170221 L 89.340369 15.16178 L 95.627521 15.16178 L 95.627521 21.015661 C 95.627521 21.759221 95.84321 22.217088 96.658666 22.217088 C 97.424931 22.217088 97.689812 21.853822 97.689812 21.110261 C 97.689812 17.248667 97.354926 13.387073 97.354926 9.542507 C 97.354926 8.605962 97.642512 5.680913 96.223504 5.680913 C 95.479944 5.680913 95.239658 5.993095 95.239658 6.712059 C 95.239658 6.952345 95.239658 7.217226 95.239658 7.457512 L 95.309663 8.944632 C 95.309663 9.184917 95.309663 9.449799 95.309663 9.690084 Z M 106.548207 5.512525 C 102.416055 5.512525 100.758654 10.023078 100.758654 13.504378 C 100.758654 17.606257 102.247666 21.976802 107.098782 21.976802 C 111.200661 21.976802 112.547773 17.05379 112.547773 13.744663 C 112.547773 10.117679 110.818475 5.512525 106.548207 5.512525 Z M 106.640915 19.79153 C 103.519098 19.79153 103.038527 16.217522 103.038527 13.814668 C 103.038527 11.394786 103.734787 7.673201 106.835792 7.673201 C 109.811925 7.673201 110.432505 11.41749 110.432505 13.720067 C 110.432505 16.022644 109.547044 19.79153 106.640915 19.79153 Z M 118.356246 16.433211 C 121.759974 16.480511 124.355812 15.61397 124.355812 11.705076 C 124.355812 8.868952 122.673815 5.898495 119.527401 5.898495 C 116.674249 5.898495 115.425521 7.890782 115.425521 10.550949 C 115.425521 12.565941 116.023397 19.74423 116.674249 21.401631 C 116.84453 21.829226 117.077247 22.264388 117.610794 22.264388 C 118.038388 22.264388 118.68924 22.094107 118.68924 21.543532 C 118.68924 19.961811 118.356246 18.378198 118.356246 16.790801 Z M 119.504697 8.131067 C 121.519688 8.131067 122.215948 10.000374 122.215948 11.72778 C 122.215948 13.551678 120.821536 14.317943 119.169811 14.317943 C 118.233265 14.317943 118.138665 13.621683 118.062984 12.881907 C 117.94568 11.77508 117.89838 10.651226 117.89838 9.542507 C 117.89838 8.464061 118.496255 8.131067 119.504697 8.131067 Z M 119.504697 8.131067 " stroke="#0097b2" stroke-width="0.525" stroke-opacity="1" stroke-miterlimit="4"/></svg>