<svg xmlns="http://www.w3.org/2000/svg" xmlns:xlink="http://www.w3.org/1999/xlink" width="400" zoomAndPan="magnify" viewBox="0 0 300 157.5" height="210" preserveAspectRatio="xMidYMid meet" version="1.0"><defs><g/></defs><path stroke-linecap="butt" transform="matrix(1.931415, 0, 0, 1.931415, 22.258849, 46.643765)" fill="none" stroke-linejoin="miter" d="M 15.390545 8.0074 C 16.088301 8.0074 16.668753 7.890096 16.668753 7.046721 C 16.668753 6.425819 16.474595 5.845367 15.730322 5.845367 C 15.226724 5.845367 14.723126 5.845367 14.195259 5.845367 L 11.171649 5.79885 C 10.637714 5.79885 10.134116 5.79885 9.630519 5.79885 C 8.675908 5.79885 7.616127 5.968739 7.616127 7.170092 C 7.616127 7.790994 7.87905 8.078187 8.506019 8.078187 C 8.675908 8.078187 8.863998 8.078187 9.033887 8.078187 L 10.087599 8.0074 C 10.257488 8.0074 10.451646 8.0074 10.615467 8.0074 C 11.026031 8.0074 11.119065 8.078187 11.195919 8.46448 C 11.381987 9.425159 11.313223 10.480894 11.35974 11.465842 C 11.458842 14.271024 11.35974 17.078228 11.622663 19.891499 C 11.699517 20.534648 11.940192 21.208134 12.706713 21.208134 C 13.713908 21.208134 13.901999 20.682289 13.901999 19.768128 C 13.901999 15.852604 13.497503 11.920901 13.327614 8.0074 Z M 20.578209 19.814645 C 19.686295 19.836892 18.6791 19.743858 18.6791 20.945212 C 18.6791 21.976677 20.050342 22.023194 20.794615 22.023194 C 21.731024 22.023194 24.778903 22.217353 24.778903 20.82184 C 24.778903 20.03105 24.01036 19.768128 23.336874 19.768128 C 23.24384 19.768128 23.096198 19.790375 23.027434 19.768128 C 22.740242 19.743858 22.809006 19.551722 22.786759 19.311047 C 22.570353 15.713053 22.715972 12.062474 22.61687 8.442233 C 23.531032 8.442233 25.019578 8.680886 25.019578 7.333913 C 25.019578 6.348965 24.105417 6.280201 23.336874 6.280201 C 23.049681 6.280201 22.762489 6.280201 22.475297 6.280201 L 20.723828 6.231661 C 20.430568 6.231661 20.143376 6.231661 19.856184 6.231661 C 18.848988 6.231661 18.367637 6.280201 18.367637 7.433015 C 18.367637 8.294592 18.731684 8.48875 19.546744 8.48875 C 20.189893 8.48875 20.507423 8.294592 20.507423 9.162236 C 20.507423 12.713713 20.55394 16.263168 20.578209 19.814645 Z M 35.578952 16.673732 C 33.774899 13.433717 32.098262 10.0946 29.93623 7.070991 C 29.695555 6.759529 29.503419 6.40155 29.052406 6.40155 C 28.138244 6.40155 27.873299 6.830316 27.873299 7.69796 L 27.873299 11.15438 C 27.873299 12.689444 27.851052 20.271726 28.231278 21.232404 C 28.447684 21.782519 28.595325 22.023194 29.240496 22.023194 C 29.93623 22.023194 30.223422 21.349708 30.223422 20.751054 C 30.223422 19.551722 30.201175 18.378683 30.152635 17.177329 L 30.106118 14.798891 C 30.059601 13.621807 30.031286 12.426521 30.031286 11.247415 L 30.031286 10.573928 C 30.563199 11.775282 31.254888 12.905849 31.906127 14.030349 L 34.929736 19.311047 C 35.239176 19.861162 36.08255 21.495327 36.774239 21.495327 C 37.617613 21.495327 37.836041 20.605435 37.836041 19.938016 C 37.836041 18.736662 37.811772 17.535309 37.759187 16.333955 L 37.71267 13.961584 C 37.666153 12.76023 37.641883 11.558877 37.641883 10.357523 C 37.641883 9.27954 37.759187 7.837511 37.496265 6.830316 C 37.330421 6.209414 37.160533 5.993008 36.487046 5.993008 C 35.625469 5.993008 35.386817 6.472336 35.386817 7.263127 C 35.386817 10.333253 35.578952 13.3872 35.578952 16.457326 Z M 49.04261 16.673732 C 47.238556 13.433717 45.56192 10.0946 43.399887 7.070991 C 43.161234 6.759529 42.967076 6.40155 42.516063 6.40155 C 41.601901 6.40155 41.338979 6.830316 41.338979 7.69796 L 41.338979 11.15438 C 41.338979 12.689444 41.314709 20.271726 41.694935 21.232404 C 41.913363 21.782519 42.058982 22.023194 42.704154 22.023194 C 43.399887 22.023194 43.687079 21.349708 43.687079 20.751054 C 43.687079 19.551722 43.664832 18.378683 43.618315 17.177329 L 43.569776 14.798891 C 43.523258 13.621807 43.494944 12.426521 43.494944 11.247415 L 43.494944 10.573928 C 44.026856 11.775282 44.718545 12.905849 45.369784 14.030349 L 48.393393 19.311047 C 48.702833 19.861162 49.546207 21.495327 50.237896 21.495327 C 51.083293 21.495327 51.299699 20.605435 51.299699 19.938016 C 51.299699 18.736662 51.275429 17.535309 51.222844 16.333955 L 51.176327 13.961584 C 51.12981 12.76023 51.10554 11.558877 51.10554 10.357523 C 51.10554 9.27954 51.222844 7.837511 50.959922 6.830316 C 50.796101 6.209414 50.626212 5.993008 49.950704 5.993008 C 49.091149 5.993008 48.850474 6.472336 48.850474 7.263127 C 48.850474 10.333253 49.04261 13.3872 49.04261 16.457326 Z M 60.034795 15.280242 C 63.345597 14.511699 63.416383 10.410107 63.416383 7.69796 C 63.416383 6.759529 63.608519 5.944469 62.384918 5.944469 C 61.329183 5.944469 61.183564 6.759529 61.183564 7.627173 C 61.183564 9.350327 61.662892 13.310345 59.00333 13.310345 C 56.717926 13.310345 56.31343 10.790334 56.167811 9.016618 C 56.072754 7.914366 56.455003 6.185144 54.849153 6.185144 C 53.841958 6.185144 53.864205 6.737281 53.864205 7.550319 C 53.864205 10.434377 54.632748 14.604733 57.89501 15.472378 C 57.872763 16.240921 58.018381 17.007441 58.018381 17.775984 C 58.018381 18.542504 57.826245 22.146566 59.049847 22.146566 C 59.601984 22.146566 60.321987 21.831059 60.321987 21.185887 C 60.321987 19.311047 60.034795 17.488791 60.034795 15.613951 Z M 83.647263 8.844707 C 83.647263 6.8829 81.80276 5.922222 80.049269 5.922222 C 77.454425 5.922222 75.702957 7.64942 75.702957 10.240219 C 75.702957 15.425861 82.065683 13.961584 82.065683 17.488791 C 82.065683 18.712393 81.034217 19.357564 79.90365 19.357564 C 76.685883 19.357564 78.344317 16.192381 76.352173 16.192381 C 75.755541 16.192381 75.415764 16.621147 75.415764 17.201599 C 75.415764 19.836892 77.50701 21.543866 80.049269 21.543866 C 82.282088 21.543866 84.1994 20.101837 84.1994 17.751714 C 84.1994 12.015957 77.911506 13.597538 77.911506 10.410107 C 77.911506 9.038865 78.609262 8.053917 80.049269 8.053917 C 81.679389 8.053917 81.584332 9.953027 82.664337 9.953027 C 83.242767 9.953027 83.647263 9.378642 83.647263 8.844707 Z M 95.310912 12.806748 C 94.038771 12.930119 92.7909 13.047423 91.51876 13.047423 L 89.674257 13.047423 C 89.409312 13.047423 89.31021 13.023153 89.31021 12.735961 L 89.31021 7.64942 C 89.31021 6.688742 89.263693 6.086043 88.114924 6.086043 C 87.154245 6.086043 87.107728 7.479532 87.107728 8.177288 C 87.107728 10.721569 87.200762 13.288098 87.200762 15.852604 C 87.200762 17.464522 87.107728 19.116889 87.370651 20.704537 C 87.487955 21.402293 87.775147 21.782519 88.51942 21.782519 C 89.455829 21.782519 89.526616 21.543866 89.526616 20.682289 C 89.526616 19.169473 89.340547 17.680927 89.340547 16.170134 L 89.340547 15.162938 L 95.626419 15.162938 L 95.626419 21.015999 C 95.626419 21.760272 95.842824 22.217353 96.657884 22.217353 C 97.426427 22.217353 97.68935 21.853306 97.68935 21.109033 C 97.68935 17.248116 97.35564 13.3872 97.35564 9.542463 C 97.35564 8.606054 97.642833 5.681546 96.225073 5.681546 C 95.4808 5.681546 95.240125 5.993008 95.240125 6.713012 C 95.240125 6.953687 95.240125 7.21661 95.240125 7.457285 L 95.310912 8.945831 C 95.310912 9.186506 95.310912 9.449429 95.310912 9.690104 Z M 106.547817 5.511658 C 102.417911 5.511658 100.759476 10.023813 100.759476 13.504504 C 100.759476 17.606095 102.248022 21.976677 107.097932 21.976677 C 111.199524 21.976677 112.548519 17.053958 112.548519 13.743156 C 112.548519 10.116848 110.819298 5.511658 106.547817 5.511658 Z M 106.640851 19.790375 C 103.518141 19.790375 103.038812 16.216651 103.038812 13.813943 C 103.038812 11.395056 103.734546 7.67369 106.83501 7.67369 C 109.812102 7.67369 110.433004 11.417303 110.433004 13.720909 C 110.433004 16.022493 109.547157 19.790375 106.640851 19.790375 Z M 118.355063 16.433056 C 121.758898 16.479573 124.355764 15.613951 124.355764 11.704495 C 124.355764 8.868977 122.67306 5.897952 119.528102 5.897952 C 116.674381 5.897952 115.42651 7.890096 115.42651 10.551681 C 115.42651 12.566072 116.023142 19.743858 116.674381 21.402293 C 116.844269 21.831059 117.078877 22.26387 117.610789 22.26387 C 118.039555 22.26387 118.688772 22.093981 118.688772 21.543866 C 118.688772 19.960263 118.355063 18.378683 118.355063 16.791035 Z M 119.503832 8.130771 C 121.520246 8.130771 122.215979 9.999544 122.215979 11.728765 C 122.215979 13.551021 120.82249 14.317541 119.170122 14.317541 C 118.231691 14.317541 118.138657 13.621807 118.061803 12.883602 C 117.944499 11.775282 117.897982 10.650783 117.897982 9.542463 C 117.897982 8.46448 118.496636 8.130771 119.503832 8.130771 Z M 119.503832 8.130771 " stroke="#001780" stroke-width="1.8" stroke-opacity="1" stroke-miterlimit="4"/><g fill="#5271ff" fill-opacity="1"><g transform="translate(36.321963, 89.13489)"><g><path d="M 15.667969 -27.023438 C 17.011719 -27.023438 18.125 -27.257812 18.125 -28.878906 C 18.125 -30.082031 17.753906 -31.195312 16.316406 -31.195312 C 15.34375 -31.195312 14.371094 -31.195312 13.351562 -31.195312 L 7.507812 -31.289062 C 6.488281 -31.289062 5.515625 -31.289062 4.542969 -31.289062 C 2.6875 -31.289062 0.648438 -30.964844 0.648438 -28.648438 C 0.648438 -27.441406 1.160156 -26.886719 2.363281 -26.886719 C 2.6875 -26.886719 3.058594 -26.886719 3.382812 -26.886719 L 5.421875 -27.023438 C 5.746094 -27.023438 6.117188 -27.023438 6.441406 -27.023438 C 7.230469 -27.023438 7.417969 -26.886719 7.554688 -26.144531 C 7.925781 -24.289062 7.789062 -22.25 7.878906 -20.347656 C 8.066406 -14.925781 7.878906 -9.503906 8.390625 -4.078125 C 8.527344 -2.828125 8.992188 -1.53125 10.476562 -1.53125 C 12.421875 -1.53125 12.792969 -2.550781 12.792969 -4.3125 C 12.792969 -11.867188 12.003906 -19.46875 11.679688 -27.023438 Z M 15.667969 -27.023438 "/></g></g></g><g fill="#5271ff" fill-opacity="1"><g transform="translate(55.74421, 89.13489)"><g><path d="M 6.257812 -4.21875 C 4.542969 -4.171875 2.597656 -4.355469 2.597656 -2.039062 C 2.597656 -0.046875 5.238281 0.046875 6.675781 0.046875 C 8.484375 0.046875 14.371094 0.417969 14.371094 -2.269531 C 14.371094 -3.800781 12.886719 -4.3125 11.589844 -4.3125 C 11.402344 -4.3125 11.125 -4.265625 10.984375 -4.3125 C 10.429688 -4.355469 10.570312 -4.726562 10.523438 -5.191406 C 10.105469 -12.144531 10.382812 -19.191406 10.199219 -26.191406 C 11.960938 -26.191406 14.832031 -25.726562 14.832031 -28.324219 C 14.832031 -30.222656 13.070312 -30.363281 11.589844 -30.363281 C 11.03125 -30.363281 10.476562 -30.363281 9.917969 -30.363281 L 6.535156 -30.453125 C 5.980469 -30.453125 5.421875 -30.453125 4.867188 -30.453125 C 2.921875 -30.453125 1.992188 -30.363281 1.992188 -28.136719 C 1.992188 -26.46875 2.6875 -26.097656 4.265625 -26.097656 C 5.515625 -26.097656 6.117188 -26.46875 6.117188 -24.800781 C 6.117188 -17.9375 6.210938 -11.078125 6.257812 -4.21875 Z M 6.257812 -4.21875 "/></g></g></g><g fill="#5271ff" fill-opacity="1"><g transform="translate(72.802408, 89.13489)"><g><path d="M 18.171875 -10.289062 C 14.695312 -16.546875 11.449219 -22.992188 7.277344 -28.832031 C 6.8125 -29.433594 6.441406 -30.128906 5.5625 -30.128906 C 3.800781 -30.128906 3.292969 -29.296875 3.292969 -27.628906 L 3.292969 -20.953125 C 3.292969 -17.984375 3.246094 -3.335938 3.988281 -1.484375 C 4.402344 -0.417969 4.683594 0.046875 5.933594 0.046875 C 7.277344 0.046875 7.832031 -1.25 7.832031 -2.410156 C 7.832031 -4.726562 7.789062 -7 7.695312 -9.316406 L 7.601562 -13.90625 C 7.507812 -16.175781 7.464844 -18.496094 7.464844 -20.765625 L 7.464844 -22.066406 C 8.484375 -19.746094 9.828125 -17.566406 11.078125 -15.390625 L 16.917969 -5.191406 C 17.523438 -4.125 19.144531 -0.972656 20.488281 -0.972656 C 22.109375 -0.972656 22.527344 -2.6875 22.527344 -3.988281 C 22.527344 -6.304688 22.480469 -8.621094 22.390625 -10.941406 L 22.296875 -15.527344 C 22.203125 -17.847656 22.15625 -20.164062 22.15625 -22.480469 C 22.15625 -24.566406 22.390625 -27.347656 21.878906 -29.296875 C 21.554688 -30.5 21.230469 -30.917969 19.933594 -30.917969 C 18.261719 -30.917969 17.800781 -29.992188 17.800781 -28.460938 C 17.800781 -22.527344 18.171875 -16.640625 18.171875 -10.707031 Z M 18.171875 -10.289062 "/></g></g></g><g fill="#5271ff" fill-opacity="1"><g transform="translate(98.806896, 89.13489)"><g><path d="M 18.171875 -10.289062 C 14.695312 -16.546875 11.449219 -22.992188 7.277344 -28.832031 C 6.8125 -29.433594 6.441406 -30.128906 5.5625 -30.128906 C 3.800781 -30.128906 3.292969 -29.296875 3.292969 -27.628906 L 3.292969 -20.953125 C 3.292969 -17.984375 3.246094 -3.335938 3.988281 -1.484375 C 4.402344 -0.417969 4.683594 0.046875 5.933594 0.046875 C 7.277344 0.046875 7.832031 -1.25 7.832031 -2.410156 C 7.832031 -4.726562 7.789062 -7 7.695312 -9.316406 L 7.601562 -13.90625 C 7.507812 -16.175781 7.464844 -18.496094 7.464844 -20.765625 L 7.464844 -22.066406 C 8.484375 -19.746094 9.828125 -17.566406 11.078125 -15.390625 L 16.917969 -5.191406 C 17.523438 -4.125 19.144531 -0.972656 20.488281 -0.972656 C 22.109375 -0.972656 22.527344 -2.6875 22.527344 -3.988281 C 22.527344 -6.304688 22.480469 -8.621094 22.390625 -10.941406 L 22.296875 -15.527344 C 22.203125 -17.847656 22.15625 -20.164062 22.15625 -22.480469 C 22.15625 -24.566406 22.390625 -27.347656 21.878906 -29.296875 C 21.554688 -30.5 21.230469 -30.917969 19.933594 -30.917969 C 18.261719 -30.917969 17.800781 -29.992188 17.800781 -28.460938 C 17.800781 -22.527344 18.171875 -16.640625 18.171875 -10.707031 Z M 18.171875 -10.289062 "/></g></g></g><g fill="#5271ff" fill-opacity="1"><g transform="translate(124.811384, 89.13489)"><g><path d="M 13.394531 -12.980469 C 19.792969 -14.460938 19.933594 -22.390625 19.933594 -27.628906 C 19.933594 -29.433594 20.304688 -31.011719 17.9375 -31.011719 C 15.898438 -31.011719 15.621094 -29.433594 15.621094 -27.765625 C 15.621094 -24.429688 16.546875 -16.78125 11.402344 -16.78125 C 7 -16.78125 6.210938 -21.648438 5.933594 -25.078125 C 5.746094 -27.210938 6.488281 -30.546875 3.382812 -30.546875 C 1.4375 -30.546875 1.484375 -29.480469 1.484375 -27.90625 C 1.484375 -22.34375 2.964844 -14.277344 9.269531 -12.609375 C 9.222656 -11.125 9.503906 -9.640625 9.503906 -8.160156 C 9.503906 -6.675781 9.132812 0.277344 11.496094 0.277344 C 12.5625 0.277344 13.953125 -0.324219 13.953125 -1.574219 C 13.953125 -5.191406 13.394531 -8.714844 13.394531 -12.332031 Z M 13.394531 -12.980469 "/></g></g></g><g fill="#5271ff" fill-opacity="1"><g transform="translate(146.829442, 89.13489)"><g/></g></g><g fill="#5271ff" fill-opacity="1"><g transform="translate(165.370976, 89.13489)"><g><path d="M 18.449219 -25.402344 C 18.449219 -29.203125 14.878906 -31.058594 11.496094 -31.058594 C 6.488281 -31.058594 3.105469 -27.71875 3.105469 -22.714844 C 3.105469 -12.699219 15.390625 -15.527344 15.390625 -8.714844 C 15.390625 -6.351562 13.394531 -5.097656 11.21875 -5.097656 C 5.007812 -5.097656 8.203125 -11.21875 4.355469 -11.21875 C 3.199219 -11.21875 2.550781 -10.382812 2.550781 -9.269531 C 2.550781 -4.171875 6.582031 -0.878906 11.496094 -0.878906 C 15.808594 -0.878906 19.515625 -3.660156 19.515625 -8.203125 C 19.515625 -19.285156 7.371094 -16.222656 7.371094 -22.390625 C 7.371094 -25.03125 8.714844 -26.933594 11.496094 -26.933594 C 14.648438 -26.933594 14.460938 -23.269531 16.546875 -23.269531 C 17.660156 -23.269531 18.449219 -24.382812 18.449219 -25.402344 Z M 18.449219 -25.402344 "/></g></g></g><g fill="#5271ff" fill-opacity="1"><g transform="translate(187.296318, 89.13489)"><g><path d="M 19.050781 -17.753906 C 16.59375 -17.523438 14.183594 -17.289062 11.726562 -17.289062 L 8.160156 -17.289062 C 7.648438 -17.289062 7.464844 -17.335938 7.464844 -17.894531 L 7.464844 -27.71875 C 7.464844 -29.574219 7.371094 -30.734375 5.144531 -30.734375 C 3.292969 -30.734375 3.199219 -28.042969 3.199219 -26.699219 C 3.199219 -21.785156 3.382812 -16.828125 3.382812 -11.867188 C 3.382812 -8.761719 3.199219 -5.5625 3.707031 -2.503906 C 3.941406 -1.160156 4.496094 -0.417969 5.933594 -0.417969 C 7.742188 -0.417969 7.878906 -0.878906 7.878906 -2.550781 C 7.878906 -5.46875 7.507812 -8.34375 7.507812 -11.265625 L 7.507812 -13.210938 L 19.652344 -13.210938 L 19.652344 -1.902344 C 19.652344 -0.464844 20.070312 0.417969 21.648438 0.417969 C 23.128906 0.417969 23.640625 -0.277344 23.640625 -1.714844 C 23.640625 -9.179688 22.992188 -16.640625 22.992188 -24.058594 C 22.992188 -25.867188 23.546875 -31.519531 20.8125 -31.519531 C 19.375 -31.519531 18.914062 -30.917969 18.914062 -29.527344 C 18.914062 -29.0625 18.914062 -28.554688 18.914062 -28.089844 L 19.050781 -25.214844 C 19.050781 -24.753906 19.050781 -24.242188 19.050781 -23.78125 Z M 19.050781 -17.753906 "/></g></g></g><g fill="#5271ff" fill-opacity="1"><g transform="translate(214.274235, 89.13489)"><g><path d="M 13.765625 -31.84375 C 5.792969 -31.84375 2.597656 -23.128906 2.597656 -16.410156 C 2.597656 -8.484375 5.46875 -0.046875 14.832031 -0.046875 C 22.761719 -0.046875 25.355469 -9.550781 25.355469 -15.945312 C 25.355469 -22.945312 22.019531 -31.84375 13.765625 -31.84375 Z M 13.953125 -4.265625 C 7.925781 -4.265625 7 -11.171875 7 -15.808594 C 7 -20.488281 8.34375 -27.671875 14.324219 -27.671875 C 20.070312 -27.671875 21.277344 -20.441406 21.277344 -15.992188 C 21.277344 -11.542969 19.5625 -4.265625 13.953125 -4.265625 Z M 13.953125 -4.265625 "/></g></g></g><g fill="#5271ff" fill-opacity="1"><g transform="translate(242.364655, 89.13489)"><g><path d="M 8.484375 -10.753906 C 15.066406 -10.660156 20.070312 -12.332031 20.070312 -19.886719 C 20.070312 -25.355469 16.828125 -31.101562 10.753906 -31.101562 C 5.238281 -31.101562 2.828125 -27.257812 2.828125 -22.109375 C 2.828125 -18.21875 3.988281 -4.355469 5.238281 -1.160156 C 5.5625 -0.324219 6.027344 0.511719 7.046875 0.511719 C 7.878906 0.511719 9.132812 0.183594 9.132812 -0.878906 C 9.132812 -3.941406 8.484375 -7 8.484375 -10.058594 Z M 10.707031 -26.792969 C 14.601562 -26.792969 15.945312 -23.175781 15.945312 -19.839844 C 15.945312 -16.316406 13.257812 -14.832031 10.058594 -14.832031 C 8.25 -14.832031 8.066406 -16.175781 7.925781 -17.613281 C 7.695312 -19.746094 7.601562 -21.925781 7.601562 -24.058594 C 7.601562 -26.144531 8.761719 -26.792969 10.707031 -26.792969 Z M 10.707031 -26.792969 "/></g></g></g></svg>